<?xml version="1.0" encoding="UTF-8"?>
<svg version="1.1" xmlns="http://www.w3.org/2000/svg" width="48" height="48">
<path d="M0 0 C5.7834593 0.51030523 9.21241049 3.91447891 12.875 8.1875 C14 10 14 10 14 12 C17.3 12 20.6 12 24 12 C24.66 10.68 25.32 9.36 26 8 C28.76338094 5.01845741 31.55449946 2.18215034 35 0 C35.99 0 36.98 0 38 0 C37.73394153 4.96642481 37.29262735 7.91270844 34.3125 11.9375 C32.70729493 14.2765131 31.96875507 15.39801439 32.1171875 18.2578125 C32.49649381 19.79062569 32.91193949 21.31495608 33.36328125 22.828125 C34.29678325 26.01234041 34.38627793 28.71663759 34 32 C31.75402508 34.96789543 29.42585753 36.62380082 26 38 C18.13479541 38.82388258 11.35489809 39.02480314 5 34 C2.81432592 29.62865184 3.95189204 25.03086025 5.3125 20.5625 C5.99457586 17.80616606 6.24555456 16.53778478 5.0546875 13.9296875 C4.14347547 12.6019214 3.20828353 11.29029732 2.25 9.99609375 C0.22386372 6.76060737 0.201636 3.76387206 0 0 Z " fill="#FDC007" transform="translate(5,5)"/>
<path d="M0 0 C2.4375 0.375 2.4375 0.375 5 1 C6.31157516 3.62315032 5.89649988 5.23033436 5.5625 8.125 C5.46066406 9.03507813 5.35882812 9.94515625 5.25390625 10.8828125 C5.17011719 11.58148438 5.08632812 12.28015625 5 13 C1.59346259 9.7707892 0.0871366 6.96057354 -0.125 2.1875 C-0.08375 1.465625 -0.0425 0.74375 0 0 Z " fill="#68653A" transform="translate(5,5)"/>
<path d="M0 0 C-0.43592276 5.14388862 -0.81613913 8.75485217 -4 13 C-4.33 13 -4.66 13 -5 13 C-5.33 9.37 -5.66 5.74 -6 2 C-3 0 -3 0 0 0 Z " fill="#67673D" transform="translate(43,5)"/>
<path d="M0 0 C0.99 0 1.98 0 3 0 C3.33 1.98 3.66 3.96 4 6 C2.68 6.33 1.36 6.66 0 7 C0 4.69 0 2.38 0 0 Z " fill="#FF651E" transform="translate(9,30)"/>
<path d="M0 0 C0 0.99 0 1.98 0 3 C-3.3 3 -6.6 3 -10 3 C-10 2.34 -10 1.68 -10 1 C-6.61981469 -0.04005702 -3.5219721 -0.08004482 0 0 Z " fill="#D09702" transform="translate(29,36)"/>
<path d="M0 0 C0.66 0 1.32 0 2 0 C2 2.31 2 4.62 2 7 C0.68 6.67 -0.64 6.34 -2 6 C-1.125 1.125 -1.125 1.125 0 0 Z " fill="#FF631E" transform="translate(37,30)"/>
<path d="M0 0 C1.98 0.495 1.98 0.495 4 1 C3.67 2.32 3.34 3.64 3 5 C1.68 4.67 0.36 4.34 -1 4 C-0.67 2.68 -0.34 1.36 0 0 Z " fill="#676D5F" transform="translate(16,27)"/>
<path d="M0 0 C1.98 0.495 1.98 0.495 4 1 C3.67 2.32 3.34 3.64 3 5 C1.68 4.67 0.36 4.34 -1 4 C-0.67 2.68 -0.34 1.36 0 0 Z " fill="#676D5F" transform="translate(29,27)"/>
</svg>
